HIERARCHY
ROOT newVegas:Hips
{
	OFFSET 0.000000 96.479958 0.000000
	CHANNELS 6 Xposition Yposition Zposition Xrotation Yrotation Zrotation
	JOINT newVegas:Pelvis
	{
		OFFSET 0.000000 0.000000 0.000000
		CHANNELS 3 Xrotation Yrotation Zrotation
		JOINT newVegas:LeftUpLeg
		{
			OFFSET 18.735201 -5.666702 -4.541200
			CHANNELS 3 Xrotation Yrotation Zrotation
			JOINT newVegas:LeftLeg
			{
				OFFSET -0.021200 -31.938179 0.493100
				CHANNELS 3 Xrotation Yrotation Zrotation
				JOINT newVegas:LeftFoot
				{
					OFFSET 0.021200 -31.938179 -4.336299
					CHANNELS 3 Xrotation Yrotation Zrotation
					JOINT newVegas:LeftToeBase
					{
						OFFSET 0.943001 -26.722000 15.023500
						CHANNELS 3 Xrotation Yrotation Zrotation
						End Site
						{
							OFFSET 0.000000 30.670183 0.000000
						}
					}
				}
				JOINT newVegas:Left_PantLeg
				{
					OFFSET 0.663870 -9.044666 -1.108900
					CHANNELS 3 Xrotation Yrotation Zrotation
					End Site
					{
						OFFSET 1.415995 20.635357 0.000000
					}
				}
			}
		}
		JOINT newVegas:RightUpLeg
		{
			OFFSET -18.735201 -5.666702 -4.541200
			CHANNELS 3 Xrotation Yrotation Zrotation
			JOINT newVegas:RightLeg
			{
				OFFSET 0.018946 -31.938133 0.493100
				CHANNELS 3 Xrotation Yrotation Zrotation
				JOINT newVegas:RightFoot
				{
					OFFSET -0.018946 -31.938126 -4.336299
					CHANNELS 3 Xrotation Yrotation Zrotation
					JOINT newVegas:RightToeBase
					{
						OFFSET -0.943001 -26.722004 15.023500
						CHANNELS 3 Xrotation Yrotation Zrotation
						End Site
						{
							OFFSET 0.000000 30.670187 0.000000
						}
					}
				}
				JOINT newVegas:Right_PantLeg
				{
					OFFSET -0.661674 -9.044716 -1.108900
					CHANNELS 3 Xrotation Yrotation Zrotation
					End Site
					{
						OFFSET -1.415958 20.635269 0.000000
					}
				}
			}
		}
	}
	JOINT newVegas:Spine
	{
		OFFSET 0.000000 10.199997 -0.299500
		CHANNELS 3 Xrotation Yrotation Zrotation
		JOINT newVegas:Spine1
		{
			OFFSET 0.000000 11.900002 -1.516600
			CHANNELS 3 Xrotation Yrotation Zrotation
			JOINT newVegas:Spine2
			{
				OFFSET 0.000000 13.600006 -2.842500
				CHANNELS 3 Xrotation Yrotation Zrotation
				JOINT newVegas:Neck
				{
					OFFSET 0.000000 9.624100 -2.890100
					CHANNELS 3 Xrotation Yrotation Zrotation
					JOINT newVegas:Head
					{
						OFFSET 0.000000 14.068802 -1.351900
						CHANNELS 3 Xrotation Yrotation Zrotation
						JOINT newVegas:Hair_Back
						{
							OFFSET 0.000000 3.231903 -17.524799
							CHANNELS 3 Xrotation Yrotation Zrotation
							End Site
							{
								OFFSET 0.000000 19.849884 0.000000
							}
						}
						JOINT newVegas:Hair_Front
						{
							OFFSET 0.000000 31.260406 4.573800
							CHANNELS 3 Xrotation Yrotation Zrotation
							JOINT newVegas:Hair_Front1
							{
								OFFSET 0.000000 2.284103 11.993300
								CHANNELS 3 Xrotation Yrotation Zrotation
								JOINT newVegas:Hair_Front2
								{
									OFFSET 0.000000 2.284103 11.993300
									CHANNELS 3 Xrotation Yrotation Zrotation
									End Site
									{
										OFFSET 0.000000 12.208862 0.000000
									}
								}
							}
						}
						JOINT newVegas:Jowel
						{
							OFFSET 0.000000 -7.458206 6.864100
							CHANNELS 3 Xrotation Yrotation Zrotation
							End Site
							{
								OFFSET 0.000000 19.849884 0.000000
							}
						}
					}
				}
				JOINT newVegas:LeftShoulder
				{
					OFFSET 15.263000 10.923401 -0.547700
					CHANNELS 3 Xrotation Yrotation Zrotation
					JOINT newVegas:LeftArm
					{
						OFFSET 25.438599 -2.830597 -13.032500
						CHANNELS 3 Xrotation Yrotation Zrotation
						JOINT newVegas:LeftForeArm
						{
							OFFSET 29.960503 0.000000 0.000000
							CHANNELS 3 Xrotation Yrotation Zrotation
							JOINT newVegas:LeftHand
							{
								OFFSET 27.849251 0.000000 0.000000
								CHANNELS 3 Xrotation Yrotation Zrotation
								JOINT newVegas:LeftHandThumb1
								{
									OFFSET 4.487587 -3.305161 6.305391
									CHANNELS 3 Xrotation Yrotation Zrotation
									JOINT newVegas:LeftHandThumb2
									{
										OFFSET 5.480453 -3.164139 3.164143
										CHANNELS 3 Xrotation Yrotation Zrotation
										JOINT newVegas:LeftHandThumb3
										{
											OFFSET 5.159721 -2.978973 2.978967
											CHANNELS 3 Xrotation Yrotation Zrotation
											End Site
											{
												OFFSET 2.494507 5.926697 1.738678
											}
										}
									}
								}
								JOINT newVegas:LeftHandIndex1
								{
									OFFSET 18.578728 -0.527832 5.208049
									CHANNELS 3 Xrotation Yrotation Zrotation
									JOINT newVegas:LeftHandIndex2
									{
										OFFSET 3.192009 0.000000 0.000000
										CHANNELS 3 Xrotation Yrotation Zrotation
										JOINT newVegas:LeftHandIndex3
										{
											OFFSET 3.835129 0.000000 0.000000
											CHANNELS 3 Xrotation Yrotation Zrotation
											End Site
											{
												OFFSET -0.034599 3.816971 0.371180
											}
										}
									}
								}
								JOINT newVegas:LeftHandMiddle1
								{
									OFFSET 18.476105 0.000000 0.000000
									CHANNELS 3 Xrotation Yrotation Zrotation
									JOINT newVegas:LeftHandMiddle2
									{
										OFFSET 3.324875 0.000000 0.000000
										CHANNELS 3 Xrotation Yrotation Zrotation
										JOINT newVegas:LeftHandMiddle3
										{
											OFFSET 4.596550 0.000000 0.000000
											CHANNELS 3 Xrotation Yrotation Zrotation
											End Site
											{
												OFFSET 0.057701 4.578827 0.399218
											}
										}
									}
								}
								JOINT newVegas:LeftHandRing1
								{
									OFFSET 17.732719 0.121887 -4.201567
									CHANNELS 3 Xrotation Yrotation Zrotation
									JOINT newVegas:LeftHandRing2
									{
										OFFSET 2.733170 0.000000 0.000000
										CHANNELS 3 Xrotation Yrotation Zrotation
										JOINT newVegas:LeftHandRing3
										{
											OFFSET 3.178268 0.000000 0.000000
											CHANNELS 3 Xrotation Yrotation Zrotation
											End Site
											{
												OFFSET 0.119102 3.170624 0.185394
											}
										}
									}
								}
								JOINT newVegas:LeftHandPinky1
								{
									OFFSET 15.989624 -0.606689 -7.535461
									CHANNELS 3 Xrotation Yrotation Zrotation
									JOINT newVegas:LeftHandPinky2
									{
										OFFSET 2.538986 0.000000 0.000000
										CHANNELS 3 Xrotation Yrotation Zrotation
										JOINT newVegas:LeftHandPinky3
										{
											OFFSET 2.593102 0.000000 0.000000
											CHANNELS 3 Xrotation Yrotation Zrotation
											End Site
											{
												OFFSET -0.150902 2.584198 0.152708
											}
										}
									}
								}
							}
							JOINT newVegas:Left_Sleeve
							{
								OFFSET 0.267448 -0.649796 0.577675
								CHANNELS 3 Xrotation Yrotation Zrotation
								End Site
								{
									OFFSET 0.000000 15.991241 0.000000
								}
							}
							JOINT newVegas:Left_CapeC
							{
								OFFSET 15.715958 -8.608795 -6.935905
								CHANNELS 3 Xrotation Yrotation Zrotation
								JOINT newVegas:Left_CapeC1
								{
									OFFSET 0.000000 -8.688499 0.000000
									CHANNELS 3 Xrotation Yrotation Zrotation
									End Site
									{
										OFFSET 0.000000 8.688499 0.000000
									}
								}
							}
						}
						JOINT newVegas:Left_CapeB
						{
							OFFSET 26.118385 -8.608795 -7.079235
							CHANNELS 3 Xrotation Yrotation Zrotation
							JOINT newVegas:Left_CapeB1
							{
								OFFSET 0.000000 -8.688499 0.000000
								CHANNELS 3 Xrotation Yrotation Zrotation
								End Site
								{
									OFFSET 0.000000 8.688499 0.000000
								}
							}
						}
						JOINT newVegas:Left_CapeA
						{
							OFFSET 5.115639 -8.608795 -10.395809
							CHANNELS 3 Xrotation Yrotation Zrotation
							JOINT newVegas:Left_CapeA1
							{
								OFFSET 0.000000 -8.688499 0.000000
								CHANNELS 3 Xrotation Yrotation Zrotation
								End Site
								{
									OFFSET 0.000000 8.688499 0.000000
								}
							}
						}
					}
				}
				JOINT newVegas:RightShoulder
				{
					OFFSET -15.263000 10.923401 -0.547700
					CHANNELS 3 Xrotation Yrotation Zrotation
					JOINT newVegas:RightArm
					{
						OFFSET -25.438599 -2.830597 -13.032500
						CHANNELS 3 Xrotation Yrotation Zrotation
						JOINT newVegas:RightForeArm
						{
							OFFSET -29.960503 0.000000 0.000000
							CHANNELS 3 Xrotation Yrotation Zrotation
							JOINT newVegas:RightHand
							{
								OFFSET -27.849251 0.000000 0.000000
								CHANNELS 3 Xrotation Yrotation Zrotation
								JOINT newVegas:RightHandThumb1
								{
									OFFSET -4.487587 -3.305161 6.305391
									CHANNELS 3 Xrotation Yrotation Zrotation
									JOINT newVegas:RightHandThumb2
									{
										OFFSET -5.480453 -3.164139 3.164143
										CHANNELS 3 Xrotation Yrotation Zrotation
										JOINT newVegas:RightHandThumb3
										{
											OFFSET -5.159721 -2.978973 2.978967
											CHANNELS 3 Xrotation Yrotation Zrotation
											End Site
											{
												OFFSET -2.494507 5.926697 1.738678
											}
										}
									}
								}
								JOINT newVegas:RightHandIndex1
								{
									OFFSET -18.578728 -0.527832 5.208049
									CHANNELS 3 Xrotation Yrotation Zrotation
									JOINT newVegas:RightHandIndex2
									{
										OFFSET -3.192009 0.000000 0.000000
										CHANNELS 3 Xrotation Yrotation Zrotation
										JOINT newVegas:RightHandIndex3
										{
											OFFSET -3.835129 0.000000 0.000000
											CHANNELS 3 Xrotation Yrotation Zrotation
											End Site
											{
												OFFSET 0.034599 3.816971 0.371180
											}
										}
									}
								}
								JOINT newVegas:RightHandMiddle1
								{
									OFFSET -18.476105 0.000000 0.000000
									CHANNELS 3 Xrotation Yrotation Zrotation
									JOINT newVegas:RightHandMiddle2
									{
										OFFSET -3.324875 0.000000 0.000000
										CHANNELS 3 Xrotation Yrotation Zrotation
										JOINT newVegas:RightHandMiddle3
										{
											OFFSET -4.596550 0.000000 0.000000
											CHANNELS 3 Xrotation Yrotation Zrotation
											End Site
											{
												OFFSET -0.057701 4.578827 0.399218
											}
										}
									}
								}
								JOINT newVegas:RightHandRing1
								{
									OFFSET -17.732719 0.121887 -4.201567
									CHANNELS 3 Xrotation Yrotation Zrotation
									JOINT newVegas:RightHandRing2
									{
										OFFSET -2.733170 0.000000 0.000000
										CHANNELS 3 Xrotation Yrotation Zrotation
										JOINT newVegas:RightHandRing3
										{
											OFFSET -3.178268 0.000000 0.000000
											CHANNELS 3 Xrotation Yrotation Zrotation
											End Site
											{
												OFFSET -0.119102 3.170624 0.185394
											}
										}
									}
								}
								JOINT newVegas:RightHandPinky1
								{
									OFFSET -15.989624 -0.606689 -7.535461
									CHANNELS 3 Xrotation Yrotation Zrotation
									JOINT newVegas:RightHandPinky2
									{
										OFFSET -2.538986 0.000000 0.000000
										CHANNELS 3 Xrotation Yrotation Zrotation
										JOINT newVegas:RightHandPinky3
										{
											OFFSET -2.593102 0.000000 0.000000
											CHANNELS 3 Xrotation Yrotation Zrotation
											End Site
											{
												OFFSET 0.150902 2.584198 0.152708
											}
										}
									}
								}
							}
							JOINT newVegas:Right_CapeC
							{
								OFFSET -15.715958 -8.608795 -6.935905
								CHANNELS 3 Xrotation Yrotation Zrotation
								JOINT newVegas:Right_CapeC1
								{
									OFFSET 0.000000 -8.688499 0.000000
									CHANNELS 3 Xrotation Yrotation Zrotation
									End Site
									{
										OFFSET 0.000000 8.688499 0.000000
									}
								}
							}
							JOINT newVegas:Right_Sleeve
							{
								OFFSET -0.267448 -0.649994 0.577675
								CHANNELS 3 Xrotation Yrotation Zrotation
								End Site
								{
									OFFSET 0.000000 15.991302 0.000000
								}
							}
						}
						JOINT newVegas:Right_CapeA
						{
							OFFSET -5.115540 -8.608795 -10.395824
							CHANNELS 3 Xrotation Yrotation Zrotation
							JOINT newVegas:Right_CapeA1
							{
								OFFSET 0.000000 -8.688499 0.000000
								CHANNELS 3 Xrotation Yrotation Zrotation
								End Site
								{
									OFFSET 0.000000 8.688499 0.000000
								}
							}
						}
						JOINT newVegas:Right_CapeB
						{
							OFFSET -26.118187 -8.608795 -7.079266
							CHANNELS 3 Xrotation Yrotation Zrotation
							JOINT newVegas:Right_CapeB1
							{
								OFFSET 0.000000 -8.688499 0.000000
								CHANNELS 3 Xrotation Yrotation Zrotation
								End Site
								{
									OFFSET 0.000000 8.688499 0.000000
								}
							}
						}
					}
				}
				JOINT newVegas:Left_Collar
				{
					OFFSET 18.625099 8.655502 8.828100
					CHANNELS 3 Xrotation Yrotation Zrotation
					JOINT newVegas:Left_Collar1
					{
						OFFSET 14.783401 10.540405 -1.259500
						CHANNELS 3 Xrotation Yrotation Zrotation
						End Site
						{
							OFFSET 0.000000 18.199875 0.000000
						}
					}
				}
				JOINT newVegas:Collar_Back
				{
					OFFSET 0.000000 15.630707 -20.132601
					CHANNELS 3 Xrotation Yrotation Zrotation
					End Site
					{
						OFFSET 0.000000 22.523010 0.000000
					}
				}
				JOINT newVegas:Left_Peck
				{
					OFFSET 17.239599 -5.132599 25.482599
					CHANNELS 3 Xrotation Yrotation Zrotation
					End Site
					{
						OFFSET 0.000000 22.523010 0.000000
					}
				}
				JOINT newVegas:Right_Peck
				{
					OFFSET -17.239599 -5.132202 25.482599
					CHANNELS 3 Xrotation Yrotation Zrotation
					End Site
					{
						OFFSET 0.000000 22.523010 0.000000
					}
				}
				JOINT newVegas:Right_Collar
				{
					OFFSET -18.625099 8.655792 8.828100
					CHANNELS 3 Xrotation Yrotation Zrotation
					JOINT newVegas:Right_Collar1
					{
						OFFSET -14.783401 10.539993 -1.259500
						CHANNELS 3 Xrotation Yrotation Zrotation
						End Site
						{
							OFFSET 0.000000 18.199631 0.000000
						}
					}
				}
			}
		}
		JOINT newVegas:Belly
		{
			OFFSET 0.000000 -6.540398 9.014299
			CHANNELS 3 Xrotation Yrotation Zrotation
			End Site
			{
				OFFSET 0.000000 11.566666 0.000000
			}
		}
	}
	JOINT newVegas:ElvisFacialAnim_Joint
	{
		OFFSET 1.000000 -95.330101 -8.825800
		CHANNELS 3 Xrotation Yrotation Zrotation
		End Site
		{
			OFFSET 0.000000 35.315800 0.000000
		}
	}
}
MOTION
Frames: 4
Frame Time: 0.033333
-0.507515 88.880058 0.025424 3.144038 -6.659574 6.095863 0.000000 -0.000000 -0.000000 -14.874390 13.450325 -6.442173 36.957884 2.058225 -0.417711 -24.173421 -3.039960 4.247414 -0.000000 0.000000 -0.000000 0.000000 0.000001 -0.000001 -32.243964 -22.481018 -39.555087 43.107561 -0.455657 1.095711 -10.866219 -21.459010 19.861400 0.000000 0.000000 -0.000000 -0.000000 0.000002 -0.000003 0.786519 1.726003 -8.808398 -3.831576 0.443896 1.309046 -3.848291 -0.002993 -1.698047 2.538480 0.159446 -0.150615 2.538486 0.159448 -0.150614 -0.000000 0.000000 0.000000 2.538481 0.159447 -0.150615 2.538551 0.159449 -0.150616 0.000000 -0.000000 0.000000 -0.000000 0.000000 0.000000 5.602900 -7.275196 -15.113868 23.835793 -39.623444 -50.368513 0.000003 -11.466384 0.000020 -41.915898 -5.149527 4.640813 -18.433955 -2.599616 -13.701031 8.075310 29.730290 2.751851 0.000001 -0.000003 -0.000001 6.333593 16.376034 -10.936882 0.727230 2.828891 -28.828685 0.000002 0.000004 -0.000001 2.227439 7.644946 -30.097068 1.084665 3.397497 -35.402961 -0.000001 -0.000000 0.000002 -6.034759 -7.556319 -29.060037 1.261481 3.633032 -38.286154 0.000002 -0.000001 0.000001 -23.214720 -10.234549 -26.605769 0.892737 3.110314 -32.022727 0.000005 0.000000 -0.000001 0.000001 0.000001 -0.000002 0.000001 0.000001 -0.000002 0.000001 0.000001 -0.000002 -0.000002 0.000001 -0.000000 -0.000002 0.000001 0.000000 -0.000002 0.000001 -0.000000 -0.000003 0.000002 -0.000001 15.682840 10.041879 18.095147 8.408963 19.901600 44.932717 0.000010 13.335617 0.000014 -6.427940 9.783830 10.116287 -18.083283 1.424678 9.803275 8.191659 -31.584475 -3.345451 -0.000001 -0.000000 -0.000001 4.945114 -10.049087 25.611898 0.580057 -2.252766 28.875079 0.000001 0.000000 0.000002 -4.391693 1.876511 38.001421 1.108831 -3.018295 40.335976 0.000003 -0.000000 -0.000001 -10.930335 12.472661 35.544625 1.267071 -3.195041 43.255096 0.000003 0.000001 -0.000000 -27.056922 12.866683 31.869519 0.847157 -2.680212 35.075678 0.000001 0.000005 -0.000001 -0.000002 0.000000 -0.000001 -0.000002 0.000000 -0.000001 -0.000002 0.000000 -0.000001 0.000001 0.000001 -0.000000 0.000001 0.000001 -0.000000 0.000001 0.000001 -0.000000 0.000001 0.000001 -0.000000 -0.000000 -0.000000 0.000000 -0.000000 -0.000000 0.000000 -0.000000 -0.000000 0.000000 -0.000000 -0.000000 0.000000 -0.000000 -0.000000 0.000000 -0.000000 -0.000000 0.000000 -0.000000 -0.000000 0.000000 -0.000000 0.000000 -0.000000 0.000000 -0.000000 -0.000000 
-0.672695 88.975250 -0.252897 3.447976 -5.846987 6.226207 0.000000 0.000000 0.000000 -15.679737 12.386095 -6.641912 36.651061 2.025209 -0.408575 -23.432199 -2.627830 4.188176 -0.000000 -0.000000 -0.000000 -0.000000 -0.000001 -0.000000 -32.829311 -23.244247 -39.892037 43.114166 -0.467301 1.098228 -11.078616 -21.452390 19.613930 0.000000 0.000000 -0.000000 0.000001 -0.000000 -0.000002 1.580577 1.205702 -9.672644 -3.875277 0.443806 1.580315 -3.887656 -0.030832 -1.414539 2.435751 0.173674 -0.150225 2.435751 0.173674 -0.150227 0.000000 0.000000 0.000000 2.435824 0.173675 -0.150224 2.435747 0.173674 -0.150225 0.000001 0.000000 -0.000000 0.000000 0.000000 -0.000000 5.575124 -7.454693 -14.843118 22.963036 -36.932762 -51.450347 0.000003 -15.121566 0.000004 -36.824897 -4.312170 4.048523 -18.433945 -2.599609 -13.701030 7.919162 29.310001 2.843297 -0.000002 -0.000001 -0.000003 7.013926 16.628919 -13.604513 0.820748 2.992297 -30.670275 -0.000001 0.000001 0.000004 2.766566 8.203144 -33.258653 1.177434 3.524151 -36.939760 -0.000000 0.000001 0.000000 -6.755533 -7.467909 -31.725068 1.483764 3.897551 -41.669840 -0.000000 -0.000001 0.000000 -23.704291 -9.532592 -28.337353 0.969630 3.229811 -33.413022 0.000002 -0.000005 -0.000002 -0.000002 -0.000000 -0.000000 -0.000002 -0.000000 -0.000000 -0.000003 -0.000000 -0.000000 -0.000002 0.000000 -0.000000 -0.000002 0.000000 -0.000000 -0.000002 0.000000 -0.000000 -0.000004 0.000000 -0.000000 15.787407 9.665901 18.593226 7.987338 20.014396 44.609376 -0.000001 13.452644 -0.000021 -6.730514 9.733007 9.771275 -18.083288 1.424668 9.803307 7.735261 -28.491127 -4.005669 -0.000000 -0.000000 -0.000001 5.114594 -11.541318 25.879611 0.563777 -2.223012 28.458296 0.000000 0.000001 0.000000 -4.236053 1.699448 37.887394 1.203893 -3.126648 42.109472 0.000002 0.000001 -0.000001 -11.490127 12.869681 36.259815 1.315565 -3.245714 44.118190 -0.000000 -0.000001 -0.000001 -28.528370 13.721116 33.609568 0.904180 -2.759549 36.277293 0.000001 0.000001 0.000001 -0.000002 -0.000001 0.000001 -0.000000 0.000001 0.000000 -0.000002 -0.000001 0.000001 0.000003 0.000001 -0.000001 0.000004 0.000000 0.000001 0.000003 0.000001 -0.000001 0.000003 -0.000000 0.000001 -0.000000 -0.000001 -0.000000 -0.000000 -0.000001 -0.000000 -0.000000 -0.000001 -0.000000 -0.000000 -0.000001 -0.000000 -0.000000 -0.000001 -0.000000 -0.000000 -0.000001 -0.000000 -0.000000 -0.000001 -0.000000 0.000000 0.000000 0.000000 0.000000 0.000000 0.000000 
-0.833221 89.061989 -0.899753 3.922665 -4.987937 6.151752 -0.000000 -0.000000 0.000000 -17.374939 11.060184 -6.634489 36.860714 2.006835 -0.418933 -22.571859 -1.963827 4.196084 -0.000000 -0.000000 -0.000000 -0.000001 0.000001 -0.000000 -34.049593 -24.274509 -40.149993 43.188229 -0.497334 1.100436 -11.202598 -21.150430 19.026110 0.000000 0.000000 0.000000 0.000003 0.000005 0.000000 3.400361 0.573251 -10.015041 -3.822649 0.446851 1.852790 -3.830436 -0.053124 -1.129434 2.221694 0.195755 -0.256945 2.221693 0.195755 -0.256945 -0.000000 0.000000 0.000000 2.221836 0.195762 -0.256946 2.221551 0.195748 -0.256942 -0.000000 0.000000 0.000000 -0.000000 0.000000 0.000000 5.531469 -7.886701 -14.784767 21.437305 -32.396602 -52.454470 -0.000000 -19.386823 -0.000002 -36.380791 -2.595337 4.653634 -18.433939 -2.599630 -13.701043 9.626896 31.910087 1.998362 0.000002 -0.000002 0.000000 7.755585 17.557988 -15.930960 1.134391 3.466275 -36.233525 -0.000004 -0.000001 0.000000 4.407352 9.845109 -38.325059 1.433619 3.840611 -40.926825 -0.000001 0.000001 -0.000003 -8.561821 -7.645366 -36.991454 2.057176 4.457612 -49.528861 -0.000001 0.000001 0.000000 -25.252290 -6.939332 -34.227977 1.091291 3.406790 -35.514730 0.000002 -0.000004 0.000003 -0.000001 -0.000001 0.000001 -0.000001 -0.000001 0.000001 -0.000002 -0.000001 0.000001 0.000001 -0.000001 -0.000000 0.000001 -0.000001 0.000000 0.000001 -0.000001 -0.000000 -0.000001 0.000000 -0.000000 15.821425 9.642975 19.158655 8.994171 20.037919 43.936572 0.000008 16.194693 0.000001 -8.192089 7.514510 10.954239 -18.083284 1.424667 9.803315 7.926706 -21.429664 -5.316079 0.000002 -0.000003 -0.000003 6.177407 -13.925508 29.935387 0.672201 -2.412175 31.138617 -0.000001 0.000007 0.000003 -5.369094 2.113261 41.721678 1.436702 -3.365964 46.218989 -0.000001 0.000002 0.000001 -15.759608 15.214724 41.602563 1.481499 -3.408255 46.977095 0.000003 -0.000001 0.000000 -33.707479 15.851093 39.367670 1.047631 -2.944796 39.159489 -0.000001 0.000002 -0.000000 -0.000001 0.000001 0.000001 -0.000001 0.000001 -0.000000 -0.000001 0.000001 0.000001 0.000003 0.000000 0.000001 0.000003 0.000000 0.000001 0.000003 0.000000 0.000001 0.000003 -0.000000 0.000001 -0.000000 -0.000000 0.000000 -0.000000 -0.000000 0.000000 -0.000000 -0.000000 0.000000 -0.000000 -0.000000 0.000000 -0.000000 -0.000000 0.000000 -0.000000 -0.000000 0.000000 -0.000000 -0.000000 0.000000 0.000000 0.000000 0.000000 -0.000000 -0.000000 0.000000 
-1.004943 89.027969 -1.920462 4.757914 -4.136289 5.591907 0.000000 0.000000 0.000000 -20.511193 9.930087 -5.880246 38.377856 2.036607 -0.480457 -21.998269 -1.600373 4.171488 -0.000000 -0.000000 -0.000000 0.000002 -0.000000 0.000001 -35.858121 -25.544984 -39.872599 43.377517 -0.567941 1.100859 -11.277669 -20.750381 18.073613 0.000000 0.000000 -0.000000 0.000000 -0.000001 -0.000002 5.822226 -0.169419 -9.760489 -3.689008 0.277008 1.719466 -3.699392 -0.213944 -1.260402 1.961151 0.232461 -0.426761 1.961149 0.232461 -0.426759 0.000000 0.000000 0.000000 1.961148 0.232461 -0.426760 1.961149 0.232463 -0.426759 0.000001 0.000000 0.000000 0.000000 0.000000 -0.000000 5.485975 -8.455199 -14.965426 17.278698 -26.382594 -54.357576 0.000004 -22.941456 0.000013 -42.119407 -2.402445 9.485694 -18.433936 -2.599629 -13.701028 11.953336 35.043423 0.640710 0.000000 -0.000001 0.000000 7.982537 18.424568 -16.579676 1.422067 3.827288 -40.754096 0.000000 -0.000001 -0.000000 6.235234 11.454791 -41.700392 1.680948 4.107898 -44.494274 -0.000000 0.000001 0.000001 -9.822648 -7.340857 -41.022010 2.666778 4.911214 -56.982895 -0.000001 -0.000001 -0.000001 -26.524457 -4.198299 -39.815102 1.216097 3.574901 -37.564295 0.000001 -0.000002 0.000003 -0.000001 -0.000001 -0.000000 -0.000001 -0.000001 -0.000000 -0.000002 -0.000001 0.000000 0.000001 0.000001 -0.000000 0.000001 0.000000 0.000000 0.000001 0.000001 -0.000000 -0.000001 0.000000 -0.000000 15.738981 9.886233 19.427713 12.472371 20.026219 42.196314 0.000000 22.818088 -0.000007 -10.030980 4.345029 12.302234 -18.083281 1.424675 9.803265 7.499896 -23.014884 -6.382865 0.000001 0.000000 -0.000000 8.572280 -15.644208 35.491067 0.852386 -2.687644 35.187103 0.000002 -0.000002 0.000001 -7.366029 2.788915 46.850976 1.723539 -3.618621 50.925115 0.000002 0.000001 0.000000 -21.487685 17.767745 47.484506 1.732103 -3.625543 51.060653 -0.000003 -0.000001 -0.000002 -40.423286 17.891387 45.637244 1.241966 -3.168190 42.802958 0.000001 -0.000002 0.000000 0.000001 -0.000001 -0.000001 -0.000001 -0.000001 -0.000001 0.000001 -0.000001 0.000000 0.000002 0.000000 -0.000000 0.000002 0.000000 -0.000000 0.000002 0.000000 -0.000000 0.000002 -0.000000 0.000000 0.000000 -0.000000 0.000000 0.000000 -0.000000 0.000000 0.000000 -0.000000 0.000000 0.000000 -0.000000 0.000000 0.000000 -0.000000 0.000000 0.000000 -0.000000 0.000000 0.000000 -0.000000 0.000000 -0.000001 -0.000000 -0.000000 0.000000 0.000000 0.000000 
